<svg xmlns="http://www.w3.org/2000/svg" viewBox="0 0 64 80" x="0px" y="0px"><title>admin, user, edit, config</title><g><path d="M26.59,18.869A10.622,10.622,0,1,1,37.212,29.491,10.634,10.634,0,0,1,26.59,18.869ZM24.472,45.983a3.153,3.153,0,0,1,.51.39l-.17,2.3a3.008,3.008,0,0,1-.56.31,1.5,1.5,0,0,0-1.53.74l-.87,1.52a1.494,1.494,0,0,0,.15,1.69,3.25,3.25,0,0,1,.01.64l-1.9,1.31a2.948,2.948,0,0,1-.59-.24,1.526,1.526,0,0,0-1.54-.74l-1.72.27a1.491,1.491,0,0,0-1.24,1.17,3.36,3.36,0,0,1-.49.41l-2.21-.68a3,3,0,0,1-.18-.61,1.488,1.488,0,0,0-.38-1.66l-1.28-1.18a1.511,1.511,0,0,0-1.69-.24,2.748,2.748,0,0,1-.62-.13l-.86-2.14a3.581,3.581,0,0,1,.37-.53,1.479,1.479,0,0,0,1.06-1.33l.13-1.74A1.489,1.489,0,0,0,8,44.053a4.894,4.894,0,0,1-.29-.57l1.15-2.01a3.1,3.1,0,0,1,.64-.04,1.49,1.49,0,0,0,1.7,0l1.44-.99a1.486,1.486,0,0,0,.6-1.59,3.472,3.472,0,0,1,.27-.58l2.28-.35a2.814,2.814,0,0,1,.43.47,1.485,1.485,0,0,0,1.06,1.33l1.67.51a1.5,1.5,0,0,0,1.62-.52,3.761,3.761,0,0,1,.62-.15l1.7,1.56a3.617,3.617,0,0,1-.1.63,1.5,1.5,0,0,0-.38,1.66l.64,1.62A1.513,1.513,0,0,0,24.472,45.983Zm-6.65.42a1.88,1.88,0,0,0-.88-1.13,1.821,1.821,0,0,0-.92-.25,1.868,1.868,0,0,0-.93,3.49,1.787,1.787,0,0,0,1.41.18,1.81,1.81,0,0,0,1.13-.87A1.857,1.857,0,0,0,17.822,46.4ZM51.48,37.371c-3.368-3.338-8.191-4.959-14.239-4.856-6.038-.1-10.781,1.478-14.147,4.718l2.322,2.136a1.494,1.494,0,0,1,.482,1.006,6.218,6.218,0,0,1-.4,2.684l.046.119a6.168,6.168,0,0,1,2.134,1.676,1.5,1.5,0,0,1,.341,1.062l-.256,3.629H55.686a1,1,0,0,0,.99-1.149A19.777,19.777,0,0,0,51.48,37.371Z"/></g><text x="0" y="79" fill="#000000" font-size="5px" font-weight="bold" font-family="'Helvetica Neue', Helvetica, Arial-Unicode, Arial, Sans-serif">Created by The Icon Z</text><text x="0" y="84" fill="#000000" font-size="5px" font-weight="bold" font-family="'Helvetica Neue', Helvetica, Arial-Unicode, Arial, Sans-serif">from the Noun Project</text></svg>